<?xml version="1.0" encoding="UTF-8" standalone="no"?>
<svg
   xmlns:dc="http://purl.org/dc/elements/1.1/"
   xmlns:cc="http://creativecommons.org/ns#"
   xmlns:rdf="http://www.w3.org/1999/02/22-rdf-syntax-ns#"
   xmlns:svg="http://www.w3.org/2000/svg"
   xmlns="http://www.w3.org/2000/svg"
   xmlns:sodipodi="http://sodipodi.sourceforge.net/DTD/sodipodi-0.dtd"
   xmlns:inkscape="http://www.inkscape.org/namespaces/inkscape"
   version="1.0"
   width="1876.9221pt"
   height="391.20001pt"
   viewBox="0 0 1876.9221 391.20001"
   preserveAspectRatio="xMidYMid meet"
   id="svg855"
   sodipodi:docname="LetraAzul.svg"
   inkscape:version="1.0.1 (c497b03c, 2020-09-10)">
  <defs
     id="defs859" />
  <sodipodi:namedview
     pagecolor="#ffffff"
     bordercolor="#666666"
     borderopacity="1"
     objecttolerance="10"
     gridtolerance="10"
     guidetolerance="10"
     inkscape:pageopacity="0"
     inkscape:pageshadow="2"
     inkscape:window-width="1440"
     inkscape:window-height="794"
     id="namedview857"
     showgrid="false"
     inkscape:zoom="0.23144531"
     inkscape:cx="1089.654"
     inkscape:cy="198.93327"
     inkscape:window-x="0"
     inkscape:window-y="25"
     inkscape:window-maximized="0"
     inkscape:current-layer="svg855"
     inkscape:document-rotation="0" />
  <metadata
     id="metadata833">
Created by potrace 1.16, written by Peter Selinger 2001-2019
<rdf:RDF>
  <cc:Work
     rdf:about="">
    <dc:format>image/svg+xml</dc:format>
    <dc:type
       rdf:resource="http://purl.org/dc/dcmitype/StillImage" />
  </cc:Work>
</rdf:RDF>
</metadata>
  <g
     transform="matrix(0.1,0,0,-0.1,-82,1173.2)"
     fill="#000000"
     stroke="none"
     id="g853">
    <path
       d="m 12482,11706 c -24,-31 -25,-42 -52,-511 -11,-192 -29,-478 -40,-635 -11,-157 -25,-350 -30,-430 -6,-80 -19,-228 -30,-330 -54,-523 -60,-755 -25,-898 57,-234 206,-342 475,-342 175,0 289,40 380,132 65,66 98,138 115,255 25,164 24,167 -61,189 -74,20 -138,67 -159,117 -9,23 -15,69 -15,121 0,90 24,462 40,616 5,52 17,192 25,310 9,118 27,341 40,495 37,425 41,566 21,657 -28,128 -90,197 -225,250 -49,19 -79,22 -247,26 l -191,4 z"
       id="path835"
       style="fill:#68a1df;fill-opacity:1" />
    <path
       d="m 2005,11601 c -12,-5 -26,-15 -32,-23 -13,-15 -28,-173 -43,-458 -6,-107 -15,-260 -20,-340 -5,-80 -15,-219 -20,-310 -32,-486 -79,-821 -142,-999 -58,-165 -115,-221 -222,-221 -44,0 -60,5 -86,26 -40,34 -54,62 -85,171 -14,48 -33,94 -43,101 -12,10 -35,12 -85,7 -166,-16 -303,-98 -376,-227 l -31,-53 v -170 -170 l 38,-64 c 132,-224 450,-347 803,-312 179,17 305,61 424,146 247,176 403,461 480,880 67,358 108,873 122,1510 7,337 4,361 -45,408 -34,32 -114,72 -172,87 -57,14 -438,23 -465,11 z"
       id="path837"
       style="fill:#68a1df;fill-opacity:1;stroke-width:0.992126;stroke-miterlimit:4;stroke-dasharray:none" />
    <path
       d="m 16419,11534 c -33,-38 -108,-203 -179,-396 l -73,-197 -46,-6 c -93,-13 -138,-34 -186,-87 -24,-27 -49,-66 -55,-86 -23,-87 -40,-355 -26,-399 7,-22 12,-23 132,-23 122,0 124,0 124,-22 0,-43 -31,-423 -45,-563 -45,-428 -55,-683 -30,-797 31,-149 126,-278 250,-339 173,-85 505,-85 685,-1 148,70 230,229 230,447 0,120 -12,167 -48,195 -37,30 -73,22 -162,-35 -92,-60 -143,-69 -185,-32 -25,21 -29,33 -33,92 -5,82 13,386 38,635 10,102 21,228 25,280 10,155 -14,138 197,142 174,3 185,4 228,28 58,32 104,108 119,193 6,34 13,123 17,198 l 7,135 -28,22 c -27,21 -37,22 -251,22 h -223 l 6,143 c 9,246 -39,371 -171,439 -34,18 -63,23 -171,26 -117,4 -132,2 -146,-14 z"
       id="path839"
       style="fill:#68a1df;fill-opacity:1" />
    <path
       d="m 3816,10964 c -371,-50 -616,-216 -706,-479 -56,-162 -23,-334 78,-411 63,-48 139,-73 259,-86 79,-8 118,-8 158,1 59,13 56,8 99,152 34,114 76,177 141,209 42,21 64,25 140,25 74,0 97,-4 131,-22 75,-40 108,-135 102,-293 l -3,-85 -140,-12 c -500,-42 -793,-144 -1000,-348 -67,-66 -90,-97 -129,-176 -140,-282 -75,-625 149,-779 128,-88 356,-128 545,-96 212,36 320,94 468,250 50,53 72,70 72,57 0,-34 69,-156 115,-203 80,-80 166,-109 330,-111 304,-3 484,174 511,505 8,93 3,101 -74,123 -73,21 -127,56 -149,97 -28,54 -23,170 27,628 25,226 23,452 -5,555 -33,119 -82,203 -174,295 -92,92 -155,129 -285,169 -155,48 -451,64 -660,35 z m 354,-1407 c 0,-90 -69,-238 -145,-313 -110,-107 -278,-125 -354,-39 -85,97 -25,235 133,309 68,32 196,62 296,69 25,2 51,4 58,5 7,1 12,-10 12,-31 z"
       id="path841"
       style="fill:#68a1df;fill-opacity:1" />
    <path
       d="m 6320,10973 c -327,-35 -602,-194 -765,-443 -161,-246 -245,-561 -245,-915 0,-215 28,-366 97,-520 147,-328 380,-490 771,-535 288,-34 672,103 806,287 62,85 126,277 126,379 0,139 -94,179 -220,94 -157,-107 -279,-157 -410,-167 -140,-11 -246,22 -313,96 -83,92 -102,169 -102,421 1,215 11,296 56,428 34,101 75,168 136,222 52,46 94,60 177,60 54,0 61,-3 96,-37 46,-47 58,-97 67,-276 4,-78 11,-134 19,-145 10,-13 31,-18 100,-21 162,-6 329,37 431,112 119,87 169,273 127,475 -53,257 -267,431 -589,477 -91,13 -278,17 -365,8 z"
       id="path843"
       style="fill:#68a1df;fill-opacity:1" />
    <path
       d="m 8540,10973 c -188,-28 -236,-39 -315,-70 -421,-167 -659,-483 -760,-1009 -39,-202 -38,-494 2,-654 63,-250 233,-465 460,-579 121,-61 350,-103 558,-103 428,-1 751,144 816,364 15,52 12,181 -6,225 -21,51 -99,129 -160,161 -57,29 -154,45 -195,30 -15,-5 -58,-43 -95,-84 -36,-40 -87,-86 -113,-101 -44,-26 -54,-28 -162,-28 -96,0 -123,4 -161,22 -118,54 -188,162 -212,326 l -6,37 h 82 c 250,0 607,74 795,165 182,87 326,228 386,377 36,91 46,151 46,278 0,358 -203,577 -588,635 -87,13 -308,18 -372,8 z m 115,-616 c 59,-33 90,-95 90,-177 -1,-130 -81,-207 -273,-260 -75,-21 -249,-46 -258,-37 -3,3 6,52 20,109 44,185 125,321 218,367 60,29 149,28 203,-2 z"
       id="path845"
       style="fill:#68a1df;fill-opacity:1" />
    <path
       d="m 11010,10966 c -181,-39 -321,-128 -406,-258 l -31,-47 -11,37 c -30,99 -114,179 -226,214 -66,22 -339,37 -410,24 -55,-10 -62,-38 -80,-291 -9,-121 -18,-236 -21,-255 -3,-19 -14,-165 -25,-325 -32,-455 -88,-1201 -107,-1410 -9,-104 -17,-273 -17,-375 -1,-172 1,-189 23,-245 33,-83 110,-158 184,-180 90,-26 166,-35 299,-35 135,0 171,7 182,37 10,26 40,347 77,828 6,83 15,154 19,158 4,5 21,-13 38,-40 64,-100 168,-184 267,-216 125,-41 330,-40 477,2 354,102 615,433 712,903 58,283 54,698 -10,928 -79,285 -232,450 -489,525 -113,33 -339,43 -445,21 z m -28,-598 c 52,-15 123,-80 152,-137 57,-113 61,-139 61,-386 0,-204 -3,-240 -22,-317 -57,-224 -181,-358 -348,-375 -167,-17 -285,110 -321,347 -23,150 -15,413 16,530 49,184 129,293 247,336 47,16 163,18 215,2 z"
       id="path847"
       style="fill:#68a1df;fill-opacity:1" />
    <path
       d="m 14366,10964 c -378,-51 -622,-220 -712,-494 -22,-67 -24,-208 -5,-265 30,-86 95,-149 192,-186 74,-28 248,-45 314,-30 59,13 61,16 91,131 51,192 124,255 294,255 117,0 161,-23 198,-103 24,-51 26,-69 27,-177 v -120 l -140,-12 c -501,-43 -793,-144 -1000,-348 -68,-66 -90,-97 -128,-175 -26,-52 -52,-122 -59,-155 -15,-84 -15,-250 1,-315 31,-125 109,-243 206,-310 128,-88 356,-128 545,-96 212,36 320,94 468,250 50,53 72,70 72,57 0,-34 69,-156 115,-203 80,-80 166,-109 330,-111 304,-3 484,174 511,505 8,93 3,101 -74,123 -73,21 -127,56 -149,97 -28,54 -23,170 27,628 25,226 23,452 -5,555 -32,118 -83,203 -175,295 -91,92 -153,129 -284,169 -155,48 -451,64 -660,35 z m 354,-1402 c 0,-93 -68,-243 -145,-318 -110,-107 -278,-125 -354,-39 -85,97 -25,235 133,309 68,32 196,62 296,69 25,2 51,4 58,5 7,1 12,-9 12,-26 z"
       id="path849"
       style="fill:#68a1df;fill-opacity:1" />
    <path
       d="m 18561,10964 c -142,-20 -205,-40 -330,-99 -227,-109 -364,-233 -485,-438 -160,-270 -243,-654 -215,-995 15,-192 45,-293 128,-436 171,-295 476,-439 926,-438 419,0 741,146 806,364 16,53 13,180 -6,224 -21,52 -98,130 -160,162 -57,29 -154,45 -194,31 -15,-5 -57,-43 -95,-84 -37,-41 -88,-87 -114,-102 -44,-26 -54,-28 -162,-28 -106,0 -119,2 -170,28 -121,62 -171,141 -204,325 l -5,32 h 82 c 177,0 440,42 626,100 171,53 286,117 395,219 85,81 134,152 168,245 27,70 31,98 36,212 3,102 1,149 -12,208 -59,262 -255,423 -574,471 -118,18 -314,18 -441,-1 z m 197,-612 c 79,-57 103,-193 50,-283 -40,-69 -109,-110 -246,-150 -70,-20 -249,-46 -258,-37 -3,4 6,53 20,110 44,185 125,320 218,367 60,30 168,26 216,-7 z"
       id="path851"
       style="fill:#68a1df;fill-opacity:1" />
  </g>
</svg>
